<?xml version="1.0" encoding="UTF-8" standalone="no"?><!-- Generator: Gravit.io --><svg xmlns="http://www.w3.org/2000/svg" xmlns:xlink="http://www.w3.org/1999/xlink" style="isolation:isolate" viewBox="0 0 32 32" width="32pt" height="32pt"><defs><clipPath id="_clipPath_RqJKcz9tekQie7eJ6wMkhQBtXe4erK2e"><rect width="32" height="32"/></clipPath></defs><g clip-path="url(#_clipPath_RqJKcz9tekQie7eJ6wMkhQBtXe4erK2e)"><path d=" M 23.808 26.729 C 19.298 26.729 16.262 23.457 16.262 18.535 C 16.262 13.907 19.416 10.518 23.719 10.518 C 28.377 10.518 31.471 14.29 30.941 19.36 L 19.298 19.36 C 19.534 22.544 21.126 24.401 23.749 24.401 C 25.96 24.401 27.492 23.192 27.993 21.158 L 30.941 21.158 C 30.175 24.636 27.492 26.729 23.808 26.729 Z  M 23.66 12.758 C 21.273 12.758 19.652 14.467 19.328 17.385 L 27.787 17.385 C 27.64 14.497 26.078 12.758 23.66 12.758 Z " fill="rgb(19,26,27)"/><path d=" M 4.242 26.434 L 1 26.434 L 1 5.271 L 8.899 5.271 C 13.763 5.271 16.681 7.658 16.681 11.873 C 16.681 14.909 14.765 17.238 11.552 18.004 L 17.3 26.434 L 13.409 26.434 L 8.133 18.476 L 4.242 18.476 L 4.242 26.434 Z  M 4.242 7.983 L 4.242 15.764 L 8.693 15.764 C 11.7 15.764 13.409 14.438 13.409 11.873 C 13.409 9.339 11.7 7.983 8.693 7.983 L 4.242 7.983 Z " fill="rgb(19,26,27)"/></g></svg>