<svg xmlns="http://www.w3.org/2000/svg" width="128" height="12" viewBox="0 0 128 12" fill="#E7F3F3">
  <path d="M124.018 11.6519C121.72 11.6519 120.036 9.84444 120.036 7.43963C120.036 5.03482 121.72 3.22739 124.018 3.22739C126.316 3.22739 128.001 5.03482 128.001 7.43963C128.001 9.84444 126.316 11.6519 124.018 11.6519ZM124.018 10.2886C125.351 10.2886 126.408 9.21643 126.408 7.43963C126.408 5.66283 125.351 4.60594 124.018 4.60594C122.685 4.60594 121.644 5.66283 121.644 7.43963C121.644 9.21643 122.685 10.2886 124.018 10.2886Z" />
  <path d="M119.113 1.49673C119.113 2.07879 118.654 2.52299 117.995 2.52299C117.337 2.52299 116.862 2.07879 116.862 1.49673C116.862 0.899357 117.337 0.470474 117.995 0.470474C118.654 0.470474 119.113 0.899357 119.113 1.49673ZM118.776 11.4989H117.229V3.38075H118.776V11.4989Z" />
  <path d="M107.635 7.4398C107.635 4.97372 109.045 3.22756 111.235 3.22756C112.322 3.22756 113.272 3.77898 113.839 4.7746V0.501083H115.386V11.4989H113.946V10.0437C113.364 11.07 112.384 11.652 111.235 11.652C109.045 11.652 107.635 9.87524 107.635 7.4398ZM109.244 7.4398C109.244 9.24724 110.193 10.2735 111.541 10.2735C112.859 10.2735 113.839 9.20128 113.839 7.40917C113.839 5.58641 112.828 4.59079 111.541 4.59079C110.193 4.59079 109.244 5.60173 109.244 7.4398Z" />
  <path d="M104.829 8.15955V3.38057H106.376V11.4987H104.936V10.2121C104.507 11.0545 103.557 11.6519 102.455 11.6519C100.816 11.6519 99.6821 10.6869 99.6821 8.60375V3.38057H101.229V8.29741C101.229 9.7066 101.934 10.2887 102.945 10.2887C103.986 10.2887 104.829 9.43088 104.829 8.15955Z" />
  <path d="M98.5125 9.99777V11.361C98.0377 11.5754 97.6241 11.652 97.134 11.652C95.6329 11.652 94.5913 10.8402 94.5913 9.0481V4.698H92.7992V3.38072H94.5913V0.975906H96.1384V3.38072H98.5891V4.698H96.1384V8.6958C96.1384 9.81396 96.6745 10.2122 97.5016 10.2122C97.8692 10.2122 98.1909 10.1509 98.5125 9.99777Z" />
  <path d="M92.3816 8.28227C92.3816 10.1969 90.8498 11.6521 88.1846 11.6521C85.5347 11.6521 83.9264 10.1969 83.7886 8.00656H85.5041C85.5807 9.40043 86.4691 10.3041 88.154 10.3041C89.5479 10.3041 90.5894 9.6455 90.5894 8.51203C90.5894 7.59299 89.9921 7.13348 88.7207 6.85777L87.1277 6.55142C85.5807 6.24507 84.1715 5.46389 84.1715 3.59519C84.1715 1.7418 85.7951 0.347931 88.0774 0.347931C90.3597 0.347931 92.0905 1.7418 92.2284 3.93217H90.5128C90.4209 2.61488 89.4713 1.69585 88.0927 1.69585C86.6682 1.69585 85.887 2.5383 85.887 3.48797C85.887 4.52954 86.7908 4.89716 87.817 5.1116L89.4406 5.43326C91.3247 5.81619 92.3816 6.64332 92.3816 8.28227Z" />
  <path d="M76.2782 11.6519C73.9346 11.6519 72.3569 9.95166 72.3569 7.39368C72.3569 4.98887 73.9959 3.22739 76.2322 3.22739C78.6523 3.22739 80.2606 5.188 79.9849 7.82256H73.9346C74.0572 9.47683 74.8843 10.4418 76.2475 10.4418C77.3963 10.4418 78.1928 9.81381 78.4532 8.75692H79.9849C79.5867 10.5644 78.1928 11.6519 76.2782 11.6519ZM76.2016 4.3915C74.9609 4.3915 74.1184 5.2799 73.9499 6.79631H78.346C78.2694 5.29522 77.4576 4.3915 76.2016 4.3915Z" />
  <path d="M71.0984 11.4989H69.536V0.501083H71.0984V11.4989Z" />
  <path d="M68.2745 7.4398C68.2745 9.87524 66.8653 11.652 64.6749 11.652C63.5261 11.652 62.5458 11.07 61.9637 10.0437V11.4989H60.5239V0.501083H62.071V4.7746C62.6377 3.77898 63.5721 3.22756 64.6749 3.22756C66.85 3.22756 68.2745 4.97372 68.2745 7.4398ZM66.6661 7.4398C66.6661 5.60173 65.7012 4.59079 64.3686 4.59079C63.0819 4.59079 62.071 5.58641 62.071 7.40917C62.071 9.20128 63.0513 10.2735 64.3686 10.2735C65.7012 10.2735 66.6661 9.24724 66.6661 7.4398Z" />
  <path d="M57.4757 11.4987V10.2427C56.9702 11.1464 56.0665 11.6519 54.8717 11.6519C53.1868 11.6519 52.084 10.6869 52.084 9.20112C52.084 7.60812 53.3553 6.78099 55.7754 6.78099C56.2503 6.78099 56.6332 6.79631 57.2919 6.87289V6.27552C57.2919 5.11141 56.6638 4.45277 55.5916 4.45277C54.4582 4.45277 53.7689 5.12673 53.7229 6.2602H52.3137C52.3903 4.43745 53.6923 3.22739 55.5916 3.22739C57.5982 3.22739 58.7623 4.36086 58.7623 6.29084V11.4987H57.4757ZM53.5544 9.15516C53.5544 9.99761 54.1824 10.549 55.1781 10.549C56.48 10.549 57.2919 9.73722 57.2919 8.49652V7.83788C56.6945 7.76129 56.2656 7.74598 55.8673 7.74598C54.3203 7.74598 53.5544 8.20549 53.5544 9.15516Z" />
  <path d="M46.3503 11.4989H44.8032V0.501083H46.3503V7.01092L49.8273 3.38073H51.65L47.8973 7.31726L52.0023 11.4989H50.0111L46.3503 7.65424V11.4989Z" />
  <path d="M40.8681 7.34774V11.4987H39.321V3.38057H40.7609V5.0961C41.3276 3.97794 42.553 3.27335 43.8856 3.27335V4.88166C42.1394 4.78975 40.8681 5.55562 40.8681 7.34774Z" />
  <path d="M36.2729 11.4987V10.2427C35.7674 11.1464 34.8637 11.6519 33.669 11.6519C31.9841 11.6519 30.8812 10.6869 30.8812 9.20112C30.8812 7.60812 32.1526 6.78099 34.5727 6.78099C35.0475 6.78099 35.4305 6.79631 36.0891 6.87289V6.27552C36.0891 5.11141 35.4611 4.45277 34.3889 4.45277C33.2554 4.45277 32.5661 5.12673 32.5202 6.2602H31.111C31.1876 4.43745 32.4895 3.22739 34.3889 3.22739C36.3954 3.22739 37.5596 4.36086 37.5596 6.29084V11.4987H36.2729ZM32.3517 9.15516C32.3517 9.99761 32.9797 10.549 33.9753 10.549C35.2773 10.549 36.0891 9.73722 36.0891 8.49652V7.83788C35.4917 7.76129 35.0628 7.74598 34.6646 7.74598C33.1175 7.74598 32.3517 8.20549 32.3517 9.15516Z" />
  <path d="M19.2094 11.4987H17.6624V3.38056H19.1022V4.72848C19.6536 3.79412 20.5267 3.22739 21.6448 3.22739C22.8396 3.22739 23.7433 3.84008 24.1109 4.91228C24.6777 3.87071 25.612 3.22739 26.8527 3.22739C28.5223 3.22739 29.5945 4.31491 29.5945 6.24489V11.4987H28.0475V6.73504C28.0475 5.38712 27.4501 4.59062 26.3166 4.59062C25.2597 4.59062 24.4019 5.47902 24.4019 6.84226V11.4987H22.8549V6.73504C22.8549 5.38712 22.2575 4.59062 21.1241 4.59062C20.0518 4.59062 19.2094 5.47902 19.2094 6.84226V11.4987Z" />
  <path d="M12.6176 11.6519C10.2741 11.6519 8.69641 9.95166 8.69641 7.39368C8.69641 4.98887 10.3354 3.22739 12.5717 3.22739C14.9918 3.22739 16.6001 5.188 16.3244 7.82256H10.2741C10.3966 9.47683 11.2238 10.4418 12.587 10.4418C13.7358 10.4418 14.5323 9.81381 14.7927 8.75692H16.3244C15.9262 10.5644 14.5323 11.6519 12.6176 11.6519ZM12.541 4.3915C11.3003 4.3915 10.4579 5.2799 10.2894 6.79631H14.6855C14.6089 5.29522 13.7971 4.3915 12.541 4.3915Z" />
  <path d="M1.6849 11.4989H0V0.501099H4.10502C6.63237 0.501099 8.14878 1.7418 8.14878 3.93216C8.14878 5.50984 7.15316 6.7199 5.48358 7.11815L8.47044 11.4989H6.44856L3.70678 7.36323H1.6849V11.4989ZM1.6849 1.91029V5.95404H3.9978C5.56016 5.95404 6.44856 5.26477 6.44856 3.93216C6.44856 2.61488 5.56016 1.91029 3.9978 1.91029H1.6849Z" />
</svg>
